<svg width="16" height="16" viewBox="0 0 16 16" fill="none" xmlns="http://www.w3.org/2000/svg">
<path d="M12.2271 16C13.4796 16 14.4368 14.68 14.4368 13.1429V4.57143H1.31177V13.1429C1.31177 14.68 2.26896 16 3.52146 16H12.2271ZM5.53052 6.85714H10.218C10.3423 6.85714 10.4616 6.91735 10.5495 7.02451C10.6374 7.13167 10.6868 7.27702 10.6868 7.42857C10.6868 7.58012 10.6374 7.72547 10.5495 7.83263C10.4616 7.9398 10.3423 8 10.218 8H5.53052C5.4062 8 5.28697 7.9398 5.19906 7.83263C5.11115 7.72547 5.06177 7.58012 5.06177 7.42857C5.06177 7.27702 5.11115 7.13167 5.19906 7.02451C5.28697 6.91735 5.4062 6.85714 5.53052 6.85714ZM1.12427 0C0.925355 0 0.73459 0.0963262 0.593937 0.267788C0.453285 0.43925 0.374268 0.671802 0.374268 0.914286L0.374268 2.28571C0.374268 2.5282 0.453285 2.76075 0.593937 2.93221C0.73459 3.10367 0.925355 3.2 1.12427 3.2H14.6243C14.8232 3.2 15.0139 3.10367 15.1546 2.93221C15.2952 2.76075 15.3743 2.5282 15.3743 2.28571V0.914286C15.3743 0.671802 15.2952 0.43925 15.1546 0.267788C15.0139 0.0963262 14.8232 0 14.6243 0H1.12427Z" fill="white"/>
</svg>
