<svg width="21" height="21" viewBox="0 0 21 21" fill="none" xmlns="http://www.w3.org/2000/svg">
<path d="M14.4613 3.36C14.9326 2.88886 15.5718 2.62424 16.2382 2.62436C16.9047 2.62448 17.5438 2.88934 18.0149 3.36066C18.4861 3.83198 18.7507 4.47117 18.7506 5.13759C18.7504 5.80402 18.4856 6.44311 18.0143 6.91426L17.0522 7.875L17.3974 8.22019C17.8278 8.65089 18.0695 9.23487 18.0695 9.84376C18.0695 10.4526 17.8278 11.0366 17.3974 11.4673L15.9326 12.9334C15.8094 13.0566 15.6423 13.1258 15.468 13.1258C15.2937 13.1258 15.1266 13.0566 15.0034 12.9334C14.8802 12.8102 14.8109 12.643 14.8109 12.4688C14.8109 12.2945 14.8802 12.1274 15.0034 12.0041L16.4694 10.5394C16.6538 10.3548 16.7573 10.1046 16.7573 9.84376C16.7573 9.58289 16.6538 9.3327 16.4694 9.14813L16.1243 8.80294L8.30832 16.6189C8.07086 16.8562 7.78149 17.035 7.46307 17.1413L3.86288 18.3409C3.74736 18.3792 3.62345 18.3846 3.50502 18.3566C3.38658 18.3285 3.27828 18.2681 3.19221 18.182C3.10615 18.096 3.04571 17.9877 3.01766 17.8692C2.98961 17.7508 2.99506 17.6269 3.03338 17.5114L4.233 13.9112C4.33926 13.5928 4.5181 13.3034 4.75538 13.0659L14.4613 3.36Z" fill="white"/>
</svg>
