<svg width="14" height="14" viewBox="0 0 14 14" fill="none" xmlns="http://www.w3.org/2000/svg">
<path d="M2.06359 7.09526L3.09191 7.09646C3.15031 7.09653 3.2062 7.0712 3.24561 7.02682L6.02836 3.82705L6.01999 10.9758C6.01992 11.0316 6.06557 11.0774 6.12143 11.0775L6.88315 11.0783C6.93901 11.0784 6.98476 11.0328 6.98483 10.9769L6.9932 3.82818L9.76845 7.03446C9.80649 7.07893 9.86232 7.10439 9.92198 7.10446L10.9503 7.10567C11.0366 7.10577 11.0837 7.00299 11.0267 6.93818L6.81879 2.07729C6.78075 2.0333 6.7337 1.99801 6.68084 1.97379C6.62797 1.94958 6.57051 1.93701 6.51236 1.93695C6.45421 1.93688 6.39673 1.94931 6.3438 1.9734C6.29087 1.99749 6.24374 2.03267 6.2056 2.07657L1.98762 6.92759C1.93041 6.99354 1.97726 7.09516 2.06359 7.09526Z" fill="white"/>
</svg>
