<svg width="17" height="19" viewBox="0 0 17 19" fill="none" xmlns="http://www.w3.org/2000/svg">
<path d="M1.60504 1.26667C1.27862 1.26667 0.965566 1.40012 0.734751 1.63766C0.503937 1.87521 0.374268 2.19739 0.374268 2.53333V3.8C0.374268 4.13594 0.503937 4.45812 0.734751 4.69567C0.965566 4.93321 1.27862 5.06667 1.60504 5.06667H2.22042V16.4667C2.22042 17.1385 2.47976 17.7829 2.94139 18.258C3.40302 18.7331 4.02912 19 4.68196 19H12.0666C12.7194 19 13.3455 18.7331 13.8071 18.258C14.2688 17.7829 14.5281 17.1385 14.5281 16.4667V5.06667H15.1435C15.4699 5.06667 15.783 4.93321 16.0138 4.69567C16.2446 4.45812 16.3743 4.13594 16.3743 3.8V2.53333C16.3743 2.19739 16.2446 1.87521 16.0138 1.63766C15.783 1.40012 15.4699 1.26667 15.1435 1.26667H10.8358C10.8358 0.930726 10.7061 0.608544 10.4753 0.370998C10.2445 0.133452 9.93146 0 9.60504 0L7.1435 0C6.81708 0 6.50403 0.133452 6.27321 0.370998C6.0424 0.608544 5.91273 0.930726 5.91273 1.26667H1.60504ZM5.29734 6.33333C5.46056 6.33333 5.61708 6.40006 5.73249 6.51883C5.84789 6.63761 5.91273 6.7987 5.91273 6.96667V15.8333C5.91273 16.0013 5.84789 16.1624 5.73249 16.2812C5.61708 16.3999 5.46056 16.4667 5.29734 16.4667C5.13413 16.4667 4.97761 16.3999 4.8622 16.2812C4.7468 16.1624 4.68196 16.0013 4.68196 15.8333V6.96667C4.68196 6.7987 4.7468 6.63761 4.8622 6.51883C4.97761 6.40006 5.13413 6.33333 5.29734 6.33333ZM8.37427 6.33333C8.53748 6.33333 8.694 6.40006 8.80941 6.51883C8.92482 6.63761 8.98965 6.7987 8.98965 6.96667V15.8333C8.98965 16.0013 8.92482 16.1624 8.80941 16.2812C8.694 16.3999 8.53748 16.4667 8.37427 16.4667C8.21106 16.4667 8.05453 16.3999 7.93913 16.2812C7.82372 16.1624 7.75888 16.0013 7.75888 15.8333V6.96667C7.75888 6.7987 7.82372 6.63761 7.93913 6.51883C8.05453 6.40006 8.21106 6.33333 8.37427 6.33333ZM12.0666 6.96667V15.8333C12.0666 16.0013 12.0017 16.1624 11.8863 16.2812C11.7709 16.3999 11.6144 16.4667 11.4512 16.4667C11.288 16.4667 11.1315 16.3999 11.016 16.2812C10.9006 16.1624 10.8358 16.0013 10.8358 15.8333V6.96667C10.8358 6.7987 10.9006 6.63761 11.016 6.51883C11.1315 6.40006 11.288 6.33333 11.4512 6.33333C11.6144 6.33333 11.7709 6.40006 11.8863 6.51883C12.0017 6.63761 12.0666 6.7987 12.0666 6.96667Z" fill="white"/>
</svg>
