<svg width="58" height="58" viewBox="0 0 58 58" fill="none" xmlns="http://www.w3.org/2000/svg">
<path d="M56 29C56 43.9117 43.9117 56 29 56C14.0883 56 2 43.9117 2 29C2 14.0883 14.0883 2 29 2C43.9117 2 56 14.0883 56 29Z" fill="#EFBF00" stroke="white" stroke-width="4"/>
<path d="M27.5428 30.6585L27.1176 20.2181C27.0383 18.1846 27 16.7235 27 15.837C27 14.6294 27.1913 13.6902 27.5748 13.0124C27.9598 12.3385 28.4658 12 29.0933 12C29.8503 12 30.3587 12.4338 30.6131 13.2958C30.8699 14.1634 31 15.4088 31 17.036C31 17.9925 30.9684 18.9671 30.9053 19.9551L30.3362 30.7002C30.2745 31.9803 30.143 32.9612 29.9407 33.6437C29.737 34.3294 29.4012 34.6679 28.9321 34.6679C28.4577 34.6679 28.1239 34.3381 27.9412 33.6784C27.7532 33.0163 27.6217 32.0094 27.5428 30.6585V30.6585ZM29.012 44.9998C28.4739 44.9998 28.0048 44.7148 27.6026 44.1393C27.2004 43.5662 27 42.7632 27 41.7319C27 40.8321 27.1913 40.0629 27.5748 39.4324C27.9598 38.7978 28.429 38.4829 28.9861 38.4829C29.5433 38.4829 30.0158 38.7978 30.4099 39.4324C30.7996 40.0629 31 40.8321 31 41.7319C31 42.7474 30.7996 43.5489 30.4041 44.1283C30.0239 44.6986 29.5263 45.0101 29.012 44.9998" fill="white"/>
</svg>
