<svg width="58" height="58" viewBox="0 0 43 43" fill="none" xmlns="http://www.w3.org/2000/svg">
<path d="M43 21.5006C43 9.62543 33.3741 0.000305176 21.5003 0.000305176C9.62599 0.000305176 0 9.62543 0 21.5006C0 33.3739 9.62599 42.9998 21.5003 42.9998C33.3741 42.9998 43 33.3739 43 21.5006Z" fill="#25B7D3"/>
<path d="M14.0006 15.7151C13.9966 15.81 14.012 15.9047 14.046 15.9934C14.0799 16.082 14.1316 16.1628 14.1979 16.2308C14.2642 16.2988 14.3437 16.3524 14.4315 16.3885C14.5194 16.4246 14.6136 16.4424 14.7086 16.4407H17.132C17.5374 16.4407 17.8605 16.1088 17.9134 15.7063C18.1777 13.7793 19.4996 12.3752 21.8555 12.3752C23.8706 12.3752 25.7154 13.3828 25.7154 15.8062C25.7154 17.6715 24.6167 18.5293 22.8807 19.8335C20.9037 21.2699 19.3381 22.9473 19.4497 25.6703L19.4585 26.3078C19.4616 26.5005 19.5403 26.6843 19.6777 26.8195C19.8151 26.9546 20.0001 27.0304 20.1929 27.0304H22.5752C22.77 27.0304 22.9567 26.953 23.0945 26.8153C23.2322 26.6776 23.3096 26.4908 23.3096 26.296V25.9876C23.3096 23.8784 24.1115 23.2645 26.2764 21.6224C28.0654 20.2624 29.9307 18.7525 29.9307 15.5829C29.9307 11.1444 26.1824 9 22.0788 9C18.3569 9 14.2797 10.7331 14.0006 15.7151V15.7151ZM18.5743 32.6439C18.5743 34.2096 19.8227 35.367 21.5412 35.367C23.3301 35.367 24.5609 34.2096 24.5609 32.6439C24.5609 31.0224 23.3272 29.8827 21.5383 29.8827C19.8228 29.8827 18.5743 31.0224 18.5743 32.6439Z" fill="white"/>
</svg>
