<svg width="11" height="11" viewBox="0 0 11 11" fill="none" xmlns="http://www.w3.org/2000/svg">
<path d="M9.94339 4.90713H8.91507C8.85667 4.90713 8.80081 4.93252 8.76146 4.97695L5.98246 8.17998V1.03125C5.98246 0.975391 5.93675 0.929688 5.88089 0.929688H5.11917C5.06332 0.929688 5.01761 0.975391 5.01761 1.03125V8.17998L2.23861 4.97695C2.20052 4.93252 2.14466 4.90713 2.085 4.90713H1.05668C0.970347 4.90713 0.923374 5.00996 0.980503 5.07471L5.19408 9.93066C5.23216 9.9746 5.27925 10.0098 5.33215 10.034C5.38505 10.0581 5.44252 10.0706 5.50067 10.0706C5.55882 10.0706 5.61629 10.0581 5.66919 10.034C5.72208 10.0098 5.76917 9.9746 5.80726 9.93066L10.0196 5.07471C10.0767 5.00869 10.0297 4.90713 9.94339 4.90713Z" fill="white"/>
</svg>
